<svg xmlns="http://www.w3.org/2000/svg" viewBox="0 -17 132 132" role="img">
  <title>FanDuel</title>
  <g transform="translate(47.927804,-44.806208)">
    <g transform="matrix(0.76158217,0,0,0.75008308,-47.923982,44.806208)">
      <path
        fill="#1493ff"
        d="M 72.8,29.1 C 76.2,21.8 80.1,14.9 84.6,8.5 86.4,5.9 88.3,3.5 90.2,1.2 90.5,0.7 90.2,0 89.6,0 89.1,0 88.6,0 88.1,0 68,0 48.6,3.4 30.6,9.6 21.3,12.8 12.3,16.8 3.7,21.5 1.3,22.8 -0.1,25.3 0,28 c 0.2,10 1.3,19.7 3.2,29.2 1.7,8.9 4.1,17.6 7.1,26 3.6,10.1 8.1,19.8 13.5,28.9 9.8,16.9 22.3,32 37,44.7 2.5,2.2 5.1,4.3 7.7,6.3 0.6,0.4 1.4,-0.2 1.1,-0.8 -1.1,-2.7 -2.1,-5.5 -3,-8.3 -4.5,-13.5 -7.3,-28 -8.2,-43 0,-0.7 -0.3,-1.3 -0.6,-1.8 -3.7,-5.1 -7,-10.3 -10,-15.9 2.7,-1.5 5.6,-2.8 8.5,-3.9 1.3,-0.5 2.1,-1.7 2.2,-3.1 0.7,-10 2.2,-19.9 4.6,-29.3 0.1,-0.5 -0.3,-1 -0.8,-0.9 -9.1,2.1 -17.9,5.2 -26,9.3 -2.3,-7.8 -4,-15.8 -5,-24 12.2,-5.2 25.3,-8.7 38.9,-10.4 1,0 2,-0.8 2.6,-1.9 z"
      />
      <path
        fill="#1493ff"
        d="M 172.5,21.5 C 163.9,16.8 155,12.9 145.6,9.6 133.1,5.3 120.1,2.4 106.5,1 c -1.1,-0.1 -2.1,0.3 -2.9,1 -7.3,7.5 -13.8,16.6 -19.1,27 -0.2,0.5 0.1,1 0.6,1 1,0 1.9,0 2.9,0 20.2,0 39.5,4.1 57.1,11.5 -1,8.2 -2.7,16.3 -5,24 -2.9,9.7 -6.8,19 -11.6,27.8 -10,18.4 -23.9,34.5 -40.5,47 -5.8,-4.4 -11.2,-9.1 -16.2,-14.3 -0.5,-0.5 -1.3,-0.1 -1.2,0.6 1.3,7.6 3,15 5.2,22 3.1,9.8 7.1,18.8 11.9,27 0.2,0.3 0.6,0.5 1,0.3 9.5,-5.6 18.5,-12 26.8,-19.2 14.6,-12.7 27.2,-27.8 37,-44.7 5.3,-9.2 9.8,-18.8 13.5,-28.9 3,-8.4 5.4,-17.1 7.1,-26 1.8,-9.5 2.9,-19.3 3.2,-29.2 0,-2.7 -1.4,-5.2 -3.8,-6.4 z"
      />
    </g>
  </g>
</svg>
