<svg id="LOGO" xmlns="http://www.w3.org/2000/svg" viewBox="0 0 508.31043 508.31043">
  <defs>
    <style>
      .cls-1 {
        fill: #0000dc;
      }
    </style>
  </defs>
  <path class="cls-1" d="M254.15515,395.8875A141.83322,141.83322,0,0,0,394.27163,232.70561H261.80756l-43.039,43.084h75.16987a45.2316,45.2316,0,0,1-77.922,2.70671L184.28726,310.2255a89.57911,89.57911,0,0,0,156.8533-34.43585H350.39a98.72017,98.72017,0,1,1-33.75109-97.91582l30.57268-30.57268A141.71654,141.71654,0,1,0,254.15515,395.8875Zm-.00082-187.02972a44.97924,44.97924,0,0,1,24.34176,7.15889l31.72914-31.72913A89.59829,89.59829,0,0,0,167.168,275.78965h47.20228a45.27928,45.27928,0,0,1,39.78409-66.93187Z"/>
</svg>
